<svg width="40" height="50" viewBox="0 0 34 44" fill="none" xmlns="http://www.w3.org/2000/svg">
<g filter="url(#filter0_d)">
<path d="M13.9531 2C7.35885 2 2 7.35898 2 13.9531C2 16.1844 2.61771 18.3559 3.79304 20.2286L13.1428 35.5295C13.3023 35.7885 13.5414 35.9479 13.8204 35.9878C14.1988 36.0475 14.6173 35.8882 14.8364 35.5097L24.213 20.0691C25.3284 18.2364 25.9062 16.1048 25.9062 13.9531C25.9062 7.35898 20.5474 2 13.9531 2ZM13.9531 19.9297C10.6064 19.9297 7.97656 17.2203 7.97656 13.9531C7.97656 10.6659 10.6659 7.97656 13.9531 7.97656C17.2403 7.97656 19.9297 10.6659 19.9297 13.9531C19.9297 17.2004 17.3398 19.9297 13.9531 19.9297Z" fill="#25B6D2"/>
<path d="M14 2V7.97656C17.2872 7.97656 19.9766 10.6659 19.9766 13.9531C19.9766 17.2004 17.3867 19.9297 14 19.9297V35.9994C14.3399 36.0073 14.6895 35.8443 14.8832 35.5097L24.2598 20.0691C25.3753 18.2364 25.9531 16.1048 25.9531 13.9531C25.9531 7.35898 20.5943 2 14 2Z" fill="#25B6D2"/>
</g>
<defs>
<filter id="filter0_d" x="0" y="0" width="33.9531" height="44" filterUnits="userSpaceOnUse" color-interpolation-filters="sRGB">
<feFlood flood-opacity="0" result="BackgroundImageFix"/>
<feColorMatrix in="SourceAlpha" type="matrix" values="0 0 0 0 0 0 0 0 0 0 0 0 0 0 0 0 0 0 127 0"/>
<feOffset dx="3" dy="3"/>
<feGaussianBlur stdDeviation="2.5"/>
<feColorMatrix type="matrix" values="0 0 0 0 0.147049 0 0 0 0 0.22225 0 0 0 0 0.291667 0 0 0 0.31 0"/>
<feBlend mode="normal" in2="BackgroundImageFix" result="effect1_dropShadow"/>
<feBlend mode="normal" in="SourceGraphic" in2="effect1_dropShadow" result="shape"/>
</filter>
</defs>
</svg>
